<?xml version="1.0" standalone="no"?>
<!DOCTYPE svg PUBLIC "-//W3C//DTD SVG 20010904//EN"
 "http://www.w3.org/TR/2001/REC-SVG-20010904/DTD/svg10.dtd">
<svg version="1.0" xmlns="http://www.w3.org/2000/svg"
 width="258.000000pt" height="258.000000pt" viewBox="0 0 258.000000 258.000000"
 preserveAspectRatio="xMidYMid meet">
<metadata>
Created by potrace 1.11, written by Peter Selinger 2001-2013
</metadata>
<g transform="translate(0.000000,258.000000) scale(0.100000,-0.100000)"
fill="#000000" stroke="none">
<path d="M224 2569 c-49 -14 -125 -69 -161 -117 -62 -82 -64 -97 -61 -620 l3
-471 29 -30 c17 -17 36 -31 44 -31 8 0 -5 -17 -29 -39 l-44 -39 0 -468 0 -469
29 -62 c31 -69 107 -148 172 -181 76 -39 139 -43 581 -40 409 3 422 4 450 24
15 11 32 30 38 42 12 28 18 28 30 0 6 -12 23 -31 38 -42 28 -21 40 -21 519
-24 564 -3 568 -2 642 72 77 77 77 73 74 646 l-3 502 -44 39 c-24 22 -37 39
-29 39 8 0 27 14 44 31 l29 30 0 502 0 502 -24 45 c-32 61 -76 107 -136 138
l-50 27 -492 3 c-537 3 -539 3 -565 -53 -14 -30 -25 -32 -33 -4 -4 11 -21 29
-38 40 -30 18 -55 19 -507 18 -261 0 -489 -5 -506 -10z m422 -364 c174 -45
333 -183 429 -374 25 -50 155 -356 317 -743 34 -82 64 -148 68 -148 5 0 159
356 428 990 l108 255 97 3 c53 1 97 0 97 -3 0 -4 -85 -205 -189 -448 -103
-243 -280 -657 -392 -920 l-203 -477 -41 0 c-34 0 -44 4 -52 23 -6 12 -97 227
-203 477 -106 250 -244 577 -307 725 -63 149 -128 295 -145 325 -79 143 -153
210 -263 237 l-65 16 0 38 c0 37 1 38 43 42 68 7 210 -2 273 -18z"/>
</g>
</svg>
